{"title":"Red 2 2013 CAM NEW SOURCE XViD - JUSTiCE ","uid":8953425,"size":1483059291,"categoryP":"video","categoryS":"movies","magnet":"?xt=urn:btih:19b8b5489c2f417ccd84f238c277c5556ebf230b&amp;dn=Red+2+2013+CAM+NEW+SOURCE+XViD+-+JUSTiCE+&amp;tr=udp%3A%2F%2Ftracker.openbittorrent.com%3A80&amp;tr=udp%3A%2F%2Fopen.demonii.com%3A1337&amp;tr=udp%3A%2F%2Ftracker.coppersurfer.tk%3A6969&amp;tr=udp%3A%2F%2Fexodus.desync.com%3A6969","seeders":1,"leechers":0,"uploader":"TeX","files":2,"time":1379946155,"description":"Red 2 2013 CAM NEW SOURCE XViD - JUSTiCE\n\n\n\nSOURCE : VIDEO - 1080p high THXS   AUDIO - Old justice cam release,unsure of audio source \n\n\nVideo and audio both cleaned and given justice.\nCheck sample and see.....\n\n\nOk video source was slightly cropped,subs were in german,video was washed out and colours,contrast all over the place,oh and was oos.\n\n\nWORKDONE -\n\nFirst off retail is due end of nov so i guess around first/second week of Nov there should be a brrip out....however i still opted to do this as i like\na challenge,like to see what i can do to the video.\nFirst off made a script and added resize and denoise to the script.Also at this staged removed the audio.\nNow i dropped the video into vdub and tweaked the contrast,brightness,sharpness,rgb colours etc....and encoded it to xvid.\nAudio i syncd from the old cam release we did...needed 9 cuts and it might slip by 100ms here and there but skimmed through and looks ok too me.\n\n\nOverall for a cam ....v6.5 a6,if you can wait,then wait ...if not enjoy folks.\n\n\n\n\nVideo\nID                                       : 0\nFormat                                   : MPEG-4 Visual\nFormat profile                           : Advanced Simple@L5\nFormat settings, BVOP                    : 2\nFormat settings, QPel                    : No\nFormat settings, GMC                     : No warppoints\nFormat settings, Matrix                  : Default (MPEG)\nMuxing mode                              : Packed bitstream\nCodec ID                                 : XVID\nCodec ID/Hint                            : XviD\nDuration                                 : 1h 47mn\nBit rate                                 : 1 697 Kbps\nWidth                                    : 720 pixels\nHeight                                   : 384 pixels\nDisplay aspect ratio                     : 1.85:1\nFrame rate                               : 25.000 fps\nColor space                              : YUV\nChroma subsampling                       : 4:2:0\nBit depth                                : 8 bits\nScan type                                : Progressive\nCompression mode                         : Lossy\nBits/(Pixel*Frame)                       : 0.246\nStream size                              : 1.28 GiB (93%)\nWriting library                          : XviD 64\n\nAudio\nID                                       : 1\nFormat                                   : MPEG Audio\nCodec ID                                 : 55\nCodec ID/Hint                            : MP3\nDuration                                 : 1h 47mn\nBit rate                                 : 128 Kbps\nChannel(s)                               : 2 channels\nSampling rate                            : 48.0 KHz\nCompression mode                         : Lossy\nStream size                              : 98.3 MiB (7%)\nAlignment                                : Split accross interleaves\nInterleave, duration                     : 40 ms (1.00 video frame)\nInterleave, preload duration             : 500 ms\n\n\n","torrent":{"xt":"urn:btih:19b8b5489c2f417ccd84f238c277c5556ebf230b","amp;dn":"Red+2+2013+CAM+NEW+SOURCE+XViD+-+JUSTiCE+","amp;tr":["udp%3A%2F%2Ftracker.openbittorrent.com%3A80","udp%3A%2F%2Fopen.demonii.com%3A1337","udp%3A%2F%2Ftracker.coppersurfer.tk%3A6969","udp%3A%2F%2Fexodus.desync.com%3A6969"],"infoHash":"19b8b5489c2f417ccd84f238c277c5556ebf230b","infoHashBuffer":{"type":"Buffer","data":[25,184,181,72,156,47,65,124,205,132,242,56,194,119,197,85,110,191,35,11]},"announce":[],"urlList":[]}}